<?xml version="1.0" standalone="no"?>
<!DOCTYPE svg PUBLIC "-//W3C//DTD SVG 20010904//EN"
 "http://www.w3.org/TR/2001/REC-SVG-20010904/DTD/svg10.dtd">
<svg version="1.0" xmlns="http://www.w3.org/2000/svg"
 width="500.000000pt" height="500.000000pt" viewBox="0 0 500.000000 500.000000"
 preserveAspectRatio="xMidYMid meet">

<g transform="translate(0.000000,500.000000) scale(0.100000,-0.100000)"
fill="#000000" stroke="none">
<path d="M2451 3275 c-49 -39 -83 -44 -151 -20 -23 8 -45 15 -49 15 -3 0 -19
-21 -35 -46 -36 -57 -73 -74 -142 -67 l-52 6 -11 -39 c-6 -22 -11 -44 -11 -50
0 -29 -42 -62 -100 -78 l-61 -17 2 -57 c3 -79 -5 -96 -61 -132 -55 -35 -57
-41 -35 -93 24 -59 19 -97 -20 -146 -19 -24 -35 -47 -35 -51 0 -4 16 -27 35
-51 39 -49 44 -87 20 -146 -22 -52 -20 -58 35 -93 56 -36 64 -53 61 -132 l-2
-57 61 -17 c58 -16 100 -49 100 -78 0 -6 5 -28 11 -50 l11 -39 52 6 c71 7 108
-10 141 -67 15 -25 30 -46 35 -46 4 0 27 7 50 15 68 24 101 19 154 -22 l46
-36 40 32 c64 51 85 55 152 30 32 -12 60 -20 62 -18 1 2 17 25 34 50 37 55 73
72 141 67 l50 -3 12 48 c13 55 52 107 80 107 10 0 19 5 19 11 0 5 3 8 8 6 4
-3 7 214 7 481 l0 487 -37 17 c-44 21 -63 47 -78 109 l-11 46 -53 -5 c-68 -5
-105 13 -142 73 -16 25 -32 45 -36 45 -4 0 -30 -9 -58 -20 -61 -24 -85 -20
-142 26 -24 19 -45 34 -48 34 -3 0 -25 -16 -49 -35z m297 -514 c4 -107 -1
-111 -145 -111 -148 0 -149 -18 -4 -42 167 -27 184 -47 179 -207 -3 -110 -3
-110 -37 -145 -58 -60 -92 -67 -291 -64 l-175 3 -3 71 c-3 68 -1 73 24 93 24
19 40 21 146 21 91 0 119 3 116 12 -3 8 -41 18 -91 25 -168 24 -197 53 -197
196 0 105 15 144 70 182 57 40 82 44 250 42 l155 -2 3 -74z"/>
</g>
</svg>
